<?xml version="1.0" standalone="no"?>
<!DOCTYPE svg PUBLIC "-//W3C//DTD SVG 20010904//EN"
 "http://www.w3.org/TR/2001/REC-SVG-20010904/DTD/svg10.dtd">
<svg version="1.0" xmlns="http://www.w3.org/2000/svg"
 width="512.000000pt" height="512.000000pt" viewBox="0 0 512.000000 512.000000"
 preserveAspectRatio="xMidYMid meet">
    <metadata>
Created by potrace 1.16, written by Peter Selinger 2001-2019
</metadata>
    <g transform="translate(0.000000,512.000000) scale(0.100000,-0.100000)"
fill="white" stroke="none">
        <path d="M2460 4460 c-50 -26 -87 -68 -105 -119 -13 -38 -15 -145 -15 -802 l0
-759 -759 0 c-829 0 -812 1 -874 -58 -46 -44 -67 -94 -67 -162 0 -100 58 -181
149 -209 27 -8 257 -11 795 -11 l756 0 0 -759 c0 -829 -1 -812 58 -874 44 -46
94 -67 162 -67 100 0 181 58 209 149 8 27 11 257 11 795 l0 756 756 0 c538 0
768 3 795 11 21 7 54 25 74 41 99 82 103 240 8 330 -62 59 -45 58 -874 58
l-759 0 0 756 c0 538 -3 768 -11 795 -15 50 -62 105 -110 129 -51 26 -150 26
-199 0z"/>
    </g>
</svg>