<?xml version="1.0" standalone="no"?>
<!DOCTYPE svg PUBLIC "-//W3C//DTD SVG 20010904//EN"
 "http://www.w3.org/TR/2001/REC-SVG-20010904/DTD/svg10.dtd">
<svg version="1.0" xmlns="http://www.w3.org/2000/svg"
 width="200.000000pt" height="200.000000pt" viewBox="0 0 200.000000 200.000000"
 preserveAspectRatio="xMidYMid meet">
        <metadata>
Created by potrace 1.16, written by Peter Selinger 2001-2019
</metadata>
        <g transform="translate(0.000000,200.000000) scale(0.100000,-0.100000)"
fill="white" stroke="none">
                <path d="M415 1673 c-44 -23 -65 -44 -86 -85 -17 -32 -19 -60 -19 -213 0 -142
3 -182 16 -208 23 -45 44 -66 86 -88 32 -17 60 -19 210 -19 146 0 179 3 213
19 90 41 105 83 105 301 0 211 -13 246 -107 294 -46 23 -374 23 -418 -1z m370
-138 c24 -23 25 -29 25 -160 0 -131 -1 -137 -25 -160 -23 -24 -29 -25 -160
-25 -131 0 -137 1 -160 25 -24 23 -25 29 -25 160 0 131 1 137 25 160 23 24 29
25 160 25 131 0 137 -1 160 -25z"/>
                <path d="M1165 1673 c-44 -23 -65 -44 -86 -85 -17 -32 -19 -60 -19 -213 0
-142 3 -182 16 -208 23 -45 44 -66 86 -88 32 -17 60 -19 213 -19 217 0 251 12
299 107 13 26 16 66 16 208 0 217 -12 251 -107 299 -46 23 -374 23 -418 -1z
m370 -138 c24 -23 25 -29 25 -160 0 -131 -1 -137 -25 -160 -23 -24 -29 -25
-160 -25 -131 0 -137 1 -160 25 -24 23 -25 29 -25 160 0 131 1 137 25 160 23
24 29 25 160 25 131 0 137 -1 160 -25z"/>
                <path d="M415 923 c-44 -23 -65 -44 -86 -85 -17 -32 -19 -60 -19 -213 0 -142
3 -182 16 -208 23 -45 44 -66 86 -88 32 -17 60 -19 213 -19 217 0 251 12 299
107 13 26 16 66 16 208 0 217 -12 251 -107 299 -46 23 -374 23 -418 -1z m370
-138 c24 -23 25 -29 25 -160 0 -131 -1 -137 -25 -160 -23 -24 -29 -25 -160
-25 -131 0 -137 1 -160 25 -24 23 -25 29 -25 160 0 131 1 137 25 160 23 24 29
25 160 25 131 0 137 -1 160 -25z"/>
                <path d="M1165 923 c-44 -23 -65 -44 -86 -85 -17 -32 -19 -60 -19 -213 0 -142
3 -182 16 -208 23 -45 44 -66 86 -88 32 -17 60 -19 213 -19 217 0 251 12 299
107 13 26 16 66 16 208 0 217 -12 251 -107 299 -46 23 -374 23 -418 -1z m370
-138 c24 -23 25 -29 25 -160 0 -187 2 -185 -185 -185 -131 0 -137 1 -160 25
-24 23 -25 29 -25 160 0 187 -2 185 185 185 131 0 137 -1 160 -25z"/>
        </g>
</svg>