<?xml version="1.0" standalone="no"?>
<!DOCTYPE svg PUBLIC "-//W3C//DTD SVG 20010904//EN"
 "http://www.w3.org/TR/2001/REC-SVG-20010904/DTD/svg10.dtd">
<svg version="1.0" xmlns="http://www.w3.org/2000/svg"
 width="128.000000pt" height="128.000000pt" viewBox="0 0 128.000000 128.000000"
 preserveAspectRatio="xMidYMid meet">
    <metadata>
Created by potrace 1.16, written by Peter Selinger 2001-2019
</metadata>
    <g transform="translate(0.000000,128.000000) scale(0.100000,-0.100000)"
fill="white" stroke="none">
        <path d="M357 1212 c-47 -31 -60 -60 -65 -138 l-5 -74 -77 0 c-108 0 -137 -8
-176 -47 l-34 -34 0 -275 c0 -266 1 -277 21 -306 30 -41 75 -58 158 -58 l70 0
3 -113 c3 -106 4 -112 24 -112 14 0 55 37 124 113 l102 112 173 0 c95 0 187 3
205 6 39 8 100 66 100 97 0 18 10 12 60 -40 33 -35 64 -63 68 -63 25 0 32 30
32 132 l0 108 26 0 c35 0 78 27 98 60 14 24 16 66 16 299 l0 271 -34 38 -34
37 -414 3 c-389 2 -415 1 -441 -16z m826 -44 c45 -24 46 -31 47 -296 l0 -253
-25 -24 c-18 -19 -35 -25 -68 -25 -54 0 -57 -5 -57 -108 l0 -77 -42 43 -43 42
-5 219 c-7 322 6 311 -377 311 l-263 0 0 65 c0 57 3 69 25 90 l24 25 381 0
c271 0 388 -3 403 -12z m-275 -251 c22 -20 22 -24 22 -277 0 -253 0 -257 -22
-278 -22 -19 -35 -21 -226 -24 l-203 -3 -89 -95 -89 -95 -1 91 0 92 -100 4
c-88 3 -102 6 -125 28 l-25 23 0 253 c0 233 1 254 19 275 l19 24 374 5 c205 3
384 3 398 1 14 -2 35 -13 48 -24z"/>
        <path d="M192 758 c3 -23 6 -23 154 -26 124 -2 153 0 163 12 26 31 1 36 -160
36 l-160 0 3 -22z"/>
        <path d="M203 653 c-18 -7 -16 -40 3 -47 24 -9 557 -7 572 3 8 5 12 17 10 27
-3 18 -18 19 -288 21 -157 1 -291 -1 -297 -4z"/>
        <path d="M197 523 c-4 -3 -7 -15 -7 -25 0 -17 16 -18 301 -18 l300 0 -3 23 -3
22 -291 3 c-160 1 -293 -1 -297 -5z"/>
    </g>
</svg>